<?xml version="1.0" encoding="UTF-8" standalone="no"?>
<svg
   xmlns:dc="http://purl.org/dc/elements/1.1/"
   xmlns:cc="http://creativecommons.org/ns#"
   xmlns:rdf="http://www.w3.org/1999/02/22-rdf-syntax-ns#"
   xmlns:svg="http://www.w3.org/2000/svg"
   xmlns="http://www.w3.org/2000/svg"
   xmlns:sodipodi="http://sodipodi.sourceforge.net/DTD/sodipodi-0.dtd"
   xmlns:inkscape="http://www.inkscape.org/namespaces/inkscape"
   viewBox="0 0 708 915"
   version="1.1"
   id="svg879"
   sodipodi:docname="icon-alt.svg"
   inkscape:version="0.92.2 5c3e80d, 2017-08-06">
  <metadata
     id="metadata883">
    <rdf:RDF>
      <cc:Work
         rdf:about="">
        <dc:format>image/svg+xml</dc:format>
        <dc:type
           rdf:resource="http://purl.org/dc/dcmitype/StillImage" />
        <dc:title></dc:title>
      </cc:Work>
    </rdf:RDF>
  </metadata>
  <sodipodi:namedview
     pagecolor="#ffffff"
     bordercolor="#666666"
     borderopacity="1"
     objecttolerance="10"
     gridtolerance="10"
     guidetolerance="10"
     inkscape:pageopacity="0"
     inkscape:pageshadow="2"
     inkscape:window-width="1426"
     inkscape:window-height="854"
     id="namedview881"
     showgrid="false"
     inkscape:zoom="0.64480874"
     inkscape:cx="354"
     inkscape:cy="457.5"
     inkscape:window-x="0"
     inkscape:window-y="0"
     inkscape:window-maximized="0"
     inkscape:current-layer="svg879" />
  <defs
     id="defs871">
    <style
       id="style869">.cls-1{fill:#333;}</style>
  </defs>
  <g
     id="Layer_2"
     data-name="Layer 2">
    <g
       id="Layer_1-2"
       data-name="Layer 1">
      <path
         class="cls-1"
         d="M11.88,54A11.88,11.88,0,0,0,0,65.88V864.12A11.88,11.88,0,0,0,11.88,876H205.94V816H60V114H205.94V54.22"
         id="path873" />
      <path
         class="cls-1"
         d="M694.53,0H274.47A13.47,13.47,0,0,0,261,13.47V901.53A13.47,13.47,0,0,0,274.47,915H694.53A13.47,13.47,0,0,0,708,901.53V13.47A13.47,13.47,0,0,0,694.53,0ZM388.71,495c-21.16,0-38.31-17.46-38.31-39s17.15-39,38.31-39S427,434.46,427,456,409.87,495,388.71,495Z"
         id="path875" />
    </g>
  </g>
  <path
     style="fill:#2b7cff;fill-opacity:0;stroke:none;stroke-width:6.20338964;stroke-miterlimit:4;stroke-dasharray:none;stroke-opacity:1"
     d="m 265.37612,909.95269 -3.80663,-3.80662 V 457.76136 9.3766622 l 4.53325,-4.5332463 4.53324,-4.53324641 H 483.2984 c 226.57255,0 219.61162,-0.22060498 222.40096,7.04829511 0.52984,1.3807582 0.96335,204.3683954 0.96335,451.0836254 v 448.57317 l -3.58936,3.37204 -3.58936,3.37202 H 484.33336 269.18274 Z m 137.8708,-417.05444 c 7.31267,-3.05543 16.15435,-11.28755 20.03885,-18.65735 4.51399,-8.56404 4.77588,-26.94116 0.50644,-35.53787 -9.92849,-19.99151 -34.26174,-27.96556 -53.2824,-17.46077 -13.40461,7.40314 -20.55697,19.80748 -20.52686,35.59976 0.0276,14.46409 10.42612,30.12065 23.90245,35.98872 6.2598,2.72574 22.90787,2.76401 29.36152,0.0675 z"
     id="path4575"
     inkscape:connector-curvature="0" />
  <path
     style="fill:#8a8a8a;fill-opacity:0;stroke:none;stroke-width:6.20338964;stroke-miterlimit:4;stroke-dasharray:none;stroke-opacity:1"
     d="m 265.37612,909.95269 -3.80663,-3.80662 V 457.76136 9.3766622 l 4.53325,-4.5332463 4.53324,-4.53324641 H 483.2984 c 226.57255,0 219.61162,-0.22060498 222.40096,7.04829511 0.52984,1.3807582 0.96335,204.3683954 0.96335,451.0836254 v 448.57317 l -3.58936,3.37204 -3.58936,3.37202 H 484.33336 269.18274 Z m 137.8708,-417.05444 c 7.31267,-3.05543 16.15435,-11.28755 20.03885,-18.65735 4.51399,-8.56404 4.77588,-26.94116 0.50644,-35.53787 -9.92849,-19.99151 -34.26174,-27.96556 -53.2824,-17.46077 -13.40461,7.40314 -20.55697,19.80748 -20.52686,35.59976 0.0276,14.46409 10.42612,30.12065 23.90245,35.98872 6.2598,2.72574 22.90787,2.76401 29.36152,0.0675 z"
     id="path4577"
     inkscape:connector-curvature="0" />
  <path
     style="fill:#8a8a8a;fill-opacity:0;stroke:none;stroke-width:6.20338964;stroke-miterlimit:4;stroke-dasharray:none;stroke-opacity:1"
     d="m 265.37612,909.95269 -3.80663,-3.80662 V 457.76136 9.3766622 l 4.53325,-4.5332463 4.53324,-4.53324641 H 483.2984 c 226.57255,0 219.61162,-0.22060498 222.40096,7.04829511 0.52984,1.3807582 0.96335,204.3683954 0.96335,451.0836254 v 448.57317 l -3.58936,3.37204 -3.58936,3.37202 H 484.33336 269.18274 Z m 137.8708,-417.05444 c 7.31267,-3.05543 16.15435,-11.28755 20.03885,-18.65735 4.51399,-8.56404 4.77588,-26.94116 0.50644,-35.53787 -9.92849,-19.99151 -34.26174,-27.96556 -53.2824,-17.46077 -13.40461,7.40314 -20.55697,19.80748 -20.52686,35.59976 0.0276,14.46409 10.42612,30.12065 23.90245,35.98872 6.2598,2.72574 22.90787,2.76401 29.36152,0.0675 z"
     id="path4579"
     inkscape:connector-curvature="0" />
  <path
     style="fill:#8a8a8a;fill-opacity:0;stroke:none;stroke-width:6.20338964;stroke-miterlimit:4;stroke-dasharray:none;stroke-opacity:1"
     d="m 265.37612,909.95269 -3.80663,-3.80662 V 457.76136 9.3766622 l 4.53325,-4.5332463 4.53324,-4.53324641 H 483.2984 c 226.57255,0 219.61162,-0.22060498 222.40096,7.04829511 0.52984,1.3807582 0.96335,204.3683954 0.96335,451.0836254 v 448.57317 l -3.58936,3.37204 -3.58936,3.37202 H 484.33336 269.18274 Z m 137.8708,-417.05444 c 7.31267,-3.05543 16.15435,-11.28755 20.03885,-18.65735 4.51399,-8.56404 4.77588,-26.94116 0.50644,-35.53787 -9.92849,-19.99151 -34.26174,-27.96556 -53.2824,-17.46077 -13.40461,7.40314 -20.55697,19.80748 -20.52686,35.59976 0.0276,14.46409 10.42612,30.12065 23.90245,35.98872 6.2598,2.72574 22.90787,2.76401 29.36152,0.0675 z"
     id="path4581"
     inkscape:connector-curvature="0" />
  <path
     style="fill:#8a8a8a;fill-opacity:1;stroke:none;stroke-width:6.20338964;stroke-miterlimit:4;stroke-dasharray:none;stroke-opacity:1"
     d="m 4.1288136,871.88644 c -3.0858149,-3.08581 -3.101695,-5.16949 -3.101695,-406.9849 V 61.018342 l 4.086264,-3.214256 C 9.149699,54.629119 10.400824,54.589831 107.46932,54.589831 h 98.26966 V 84.055932 113.52203 H 132.84915 59.959322 v 351.26695 351.26695 h 72.889828 72.88983 v 29.4661 29.46611 h -99.25423 c -97.186445,0 -99.3188602,-0.0646 -102.3559364,-3.1017 z"
     id="path4583"
     inkscape:connector-curvature="0" />
  <path
     style="fill:#f9f9f9;fill-opacity:0;stroke:none;stroke-width:6.20338964;stroke-miterlimit:4;stroke-dasharray:none;stroke-opacity:1"
     d="m 265.37612,909.95269 -3.80663,-3.80662 V 457.76136 9.3766622 l 4.53325,-4.5332463 4.53324,-4.53324641 H 483.2984 c 226.57255,0 219.61162,-0.22060498 222.40096,7.04829511 0.52984,1.3807582 0.96335,204.3683954 0.96335,451.0836254 v 448.57317 l -3.58936,3.37204 -3.58936,3.37202 H 484.33336 269.18274 Z m 137.8708,-417.05444 c 7.31267,-3.05543 16.15435,-11.28755 20.03885,-18.65735 4.51399,-8.56404 4.77588,-26.94116 0.50644,-35.53787 -9.92849,-19.99151 -34.26174,-27.96556 -53.2824,-17.46077 -13.40461,7.40314 -20.55697,19.80748 -20.52686,35.59976 0.0276,14.46409 10.42612,30.12065 23.90245,35.98872 6.2598,2.72574 22.90787,2.76401 29.36152,0.0675 z"
     id="path4585"
     inkscape:connector-curvature="0" />
  <path
     style="fill:#f9f9f9;fill-opacity:0;stroke:none;stroke-width:6.20338964;stroke-miterlimit:4;stroke-dasharray:none;stroke-opacity:1"
     d="m 265.37612,909.95269 -3.80663,-3.80662 V 457.76136 9.3766622 l 4.53325,-4.5332463 4.53324,-4.53324641 H 483.2984 c 226.57255,0 219.61162,-0.22060498 222.40096,7.04829511 0.52984,1.3807582 0.96335,204.3683954 0.96335,451.0836254 v 448.57317 l -3.58936,3.37204 -3.58936,3.37202 H 484.33336 269.18274 Z m 137.8708,-417.05444 c 7.31267,-3.05543 16.15435,-11.28755 20.03885,-18.65735 4.51399,-8.56404 4.77588,-26.94116 0.50644,-35.53787 -9.92849,-19.99151 -34.26174,-27.96556 -53.2824,-17.46077 -13.40461,7.40314 -20.55697,19.80748 -20.52686,35.59976 0.0276,14.46409 10.42612,30.12065 23.90245,35.98872 6.2598,2.72574 22.90787,2.76401 29.36152,0.0675 z"
     id="path4587"
     inkscape:connector-curvature="0" />
  <path
     style="fill:#2b7cff;fill-opacity:0.97461927;stroke:none;stroke-width:6.20338964;stroke-miterlimit:4;stroke-dasharray:none;stroke-opacity:1"
     d="M 26.616102,873.89111 C 5.6487011,873.28562 4.4237429,872.91158 3.50308,866.83369 1.7611606,855.33415 0.05416301,302.69617 1.0194793,62.771606 1.0236809,61.727302 3.2952331,59.675118 6.0673729,58.211196 10.633524,55.799885 20.261462,55.486734 108.42331,54.882043 l 97.31567,-0.667476 V 83.8683 113.52203 H 132.84915 59.959322 v 351.26695 351.26695 h 72.889828 72.88983 v 29.4661 29.46611 l -81.8072,-0.32458 c -44.993962,-0.17852 -88.786017,-0.52611 -97.315678,-0.77245 z"
     id="path4589"
     inkscape:connector-curvature="0" />
  <path
     style="fill:#2b7cff;fill-opacity:0.97461925;stroke:none;stroke-width:6.20338964;stroke-miterlimit:4;stroke-dasharray:none;stroke-opacity:1"
     d="m 265.37612,909.95269 -3.80663,-3.80662 V 457.76136 9.3766622 l 4.53325,-4.5332463 4.53324,-4.53324641 H 483.2984 c 226.57255,0 219.61162,-0.22060498 222.40096,7.04829511 0.52984,1.3807582 0.96335,204.3683954 0.96335,451.0836254 v 448.57317 l -3.58936,3.37204 -3.58936,3.37202 H 484.33336 269.18274 Z m 137.8708,-417.05444 c 7.31267,-3.05543 16.15435,-11.28755 20.03885,-18.65735 4.51399,-8.56404 4.77588,-26.94116 0.50644,-35.53787 -9.92849,-19.99151 -34.26174,-27.96556 -53.2824,-17.46077 -13.40461,7.40314 -20.55697,19.80748 -20.52686,35.59976 0.0276,14.46409 10.42612,30.12065 23.90245,35.98872 6.2598,2.72574 22.90787,2.76401 29.36152,0.0675 z"
     id="path4591"
     inkscape:connector-curvature="0" />
</svg>
