<svg xmlns="http://www.w3.org/2000/svg" viewBox="0 0 708 915"><defs><style>.cls-1{fill:#333;}</style></defs><g id="Layer_2" data-name="Layer 2"><g id="Layer_1-2" data-name="Layer 1"><path class="cls-1" d="M11.88,54A11.88,11.88,0,0,0,0,65.88V864.12A11.88,11.88,0,0,0,11.88,876H205.94V816H60V114H205.94V54.22"/><path class="cls-1" d="M694.53,0H274.47A13.47,13.47,0,0,0,261,13.47V901.53A13.47,13.47,0,0,0,274.47,915H694.53A13.47,13.47,0,0,0,708,901.53V13.47A13.47,13.47,0,0,0,694.53,0ZM388.71,495c-21.16,0-38.31-17.46-38.31-39s17.15-39,38.31-39S427,434.46,427,456,409.87,495,388.71,495Z"/></g></g></svg>