<?xml version="1.0" standalone="no"?>
<!DOCTYPE svg PUBLIC "-//W3C//DTD SVG 20010904//EN"
 "http://www.w3.org/TR/2001/REC-SVG-20010904/DTD/svg10.dtd">
<svg version="1.0" xmlns="http://www.w3.org/2000/svg"
 width="512.000000pt" height="512.000000pt" viewBox="0 0 512.000000 512.000000"
 preserveAspectRatio="xMidYMid meet">
<metadata>
Created by potrace 1.14, written by Peter Selinger 2001-2017
</metadata>
<g transform="translate(0.000000,512.000000) scale(0.100000,-0.100000)"
fill="#000000" stroke="none">
<path d="M2062 5100 c-12 -12 -22 -33 -23 -48 -1 -15 -2 -1141 -3 -2502 -2
-2667 -4 -2530 48 -2544 12 -3 558 -6 1214 -6 1190 0 1193 0 1215 21 l22 20 0
2520 0 2521 -24 19 c-23 18 -57 19 -1225 19 -1196 0 -1202 0 -1224 -20z m779
-2335 c111 -56 152 -175 100 -290 -21 -49 -79 -104 -118 -113 -38 -8 -109 -9
-138 -1 -78 22 -147 120 -147 207 2 159 167 266 303 197z"/>
<path d="M613 4809 c-12 -4 -25 -18 -29 -31 -4 -13 -8 -1032 -8 -2266 -1
-2242 -1 -2243 19 -2268 l21 -26 534 0 c294 1 545 1 558 1 l22 1 -2 167 -3
168 -395 1 c-217 1 -400 2 -406 3 -8 1 -11 546 -10 1963 l1 1962 408 0 407 0
0 166 0 167 -548 0 c-302 0 -558 -4 -569 -8z"/>
</g>
</svg>
