<?xml version="1.0" standalone="no"?>
<!DOCTYPE svg PUBLIC "-//W3C//DTD SVG 20010904//EN"
 "http://www.w3.org/TR/2001/REC-SVG-20010904/DTD/svg10.dtd">
<svg version="1.0" xmlns="http://www.w3.org/2000/svg"
 width="915.000000pt" height="915.000000pt" viewBox="0 0 915.000000 915.000000"
 preserveAspectRatio="xMidYMid meet">
<metadata>
Created by potrace 1.11, written by Peter Selinger 2001-2013
</metadata>
<g transform="translate(0.000000,915.000000) scale(0.100000,-0.100000)"
fill="#000000" stroke="none">
<path d="M3715 9138 c-19 -11 -64 -57 -66 -68 0 -3 -2 -14 -4 -25 -6 -32 -7
-108 -1 -132 2 -13 1 -25 -3 -28 -5 -2 -5 -22 -1 -44 4 -22 3 -45 -1 -52 -4
-8 -3 -19 2 -25 7 -8 6 -14 -1 -19 -6 -3 -8 -10 -6 -14 3 -4 5 -39 5 -77 1
-100 1 -104 2 -157 1 -27 -1 -50 -4 -53 -2 -3 -1 -21 3 -40 4 -18 4 -34 -1
-34 -4 0 -5 -10 0 -22 4 -13 5 -35 0 -50 -5 -17 -4 -28 2 -28 6 0 7 -5 4 -11
-4 -6 -6 -36 -5 -67 1 -31 1 -66 0 -77 -1 -11 -1 -27 -1 -35 1 -8 1 -31 0 -50
0 -19 0 -39 -1 -45 0 -5 3 -20 6 -32 2 -13 1 -23 -3 -23 -4 0 -5 -20 -1 -45 4
-24 3 -50 -1 -57 -4 -7 -3 -18 2 -24 7 -8 6 -14 -1 -19 -6 -3 -8 -10 -6 -14 3
-4 5 -39 5 -77 1 -100 1 -104 2 -157 1 -27 -1 -50 -4 -53 -2 -3 -1 -21 3 -40
4 -18 4 -34 -1 -34 -4 0 -5 -10 0 -22 4 -13 5 -35 0 -50 -5 -17 -4 -28 2 -28
6 0 7 -5 4 -11 -4 -6 -6 -36 -5 -67 1 -31 1 -66 0 -77 -1 -11 -1 -27 -1 -35 1
-8 1 -31 0 -50 0 -19 0 -39 -1 -45 0 -5 3 -20 6 -32 2 -13 1 -23 -3 -23 -4 0
-5 -20 -1 -45 4 -24 3 -50 -1 -57 -4 -7 -3 -18 2 -24 7 -8 6 -14 -1 -19 -6 -3
-8 -10 -6 -14 4 -6 6 -65 6 -163 -1 -30 -1 -147 0 -165 0 -10 0 -34 -1 -53 0
-19 0 -39 -1 -45 0 -5 3 -20 6 -32 2 -13 1 -23 -3 -23 -4 0 -5 -20 -1 -45 4
-24 3 -50 -1 -57 -4 -7 -3 -18 2 -24 7 -8 6 -14 -1 -19 -6 -3 -8 -10 -6 -14 3
-4 5 -39 5 -77 1 -100 1 -104 2 -157 1 -27 -1 -50 -4 -53 -2 -3 -1 -21 3 -40
4 -18 4 -34 -1 -34 -4 0 -5 -10 0 -22 4 -13 5 -35 0 -50 -5 -17 -4 -28 2 -28
6 0 7 -5 4 -11 -4 -6 -6 -36 -5 -67 1 -31 1 -66 0 -77 -1 -11 -1 -27 -1 -35 1
-8 1 -31 0 -50 0 -19 0 -39 -1 -45 0 -5 3 -20 6 -32 2 -13 1 -23 -3 -23 -4 0
-5 -20 -1 -45 4 -24 3 -50 -1 -57 -4 -7 -3 -18 2 -24 7 -8 6 -14 -1 -19 -6 -3
-8 -10 -6 -14 3 -4 5 -39 5 -77 1 -100 1 -104 2 -157 1 -27 -1 -50 -4 -53 -2
-3 -1 -21 3 -40 4 -18 4 -34 -1 -34 -4 0 -5 -10 0 -22 4 -13 5 -35 0 -50 -5
-17 -4 -28 2 -28 6 0 7 -5 4 -11 -4 -6 -6 -36 -5 -67 1 -31 1 -66 0 -77 -1
-11 -1 -27 -1 -35 1 -8 1 -31 0 -50 0 -19 0 -39 -1 -45 0 -5 3 -20 6 -32 2
-13 1 -23 -3 -23 -4 0 -5 -20 -1 -45 4 -24 3 -50 -1 -57 -4 -7 -3 -18 2 -24 7
-8 6 -14 -1 -19 -6 -3 -8 -10 -6 -14 3 -4 5 -39 5 -77 1 -100 1 -104 2 -157 1
-27 -1 -50 -4 -53 -2 -3 -1 -21 3 -40 4 -18 4 -34 -1 -34 -4 0 -5 -10 0 -22 4
-13 5 -35 0 -50 -5 -17 -4 -28 2 -28 6 0 7 -5 4 -11 -4 -6 -6 -36 -5 -67 1
-31 1 -66 0 -77 -1 -11 -1 -27 -1 -35 1 -8 1 -31 0 -50 0 -19 0 -39 -1 -45 0
-5 3 -20 6 -32 2 -13 1 -23 -3 -23 -4 0 -5 -20 -1 -45 4 -24 3 -50 -1 -57 -4
-7 -3 -18 2 -24 7 -8 6 -14 -1 -19 -6 -3 -8 -10 -6 -14 3 -4 5 -39 5 -77 1
-100 1 -104 2 -157 1 -27 -1 -50 -4 -53 -2 -3 -1 -21 3 -40 4 -18 4 -34 -1
-34 -4 0 -5 -10 0 -22 4 -13 5 -35 0 -50 -4 -16 -4 -28 1 -28 4 0 5 -15 1 -33
-5 -18 -5 -41 -1 -52 4 -11 4 -31 0 -45 -4 -14 -3 -40 1 -57 4 -18 3 -33 -2
-33 -4 0 -5 -10 0 -22 4 -13 5 -35 0 -50 -5 -17 -4 -28 2 -28 6 0 7 -5 4 -11
-4 -6 -6 -36 -5 -67 1 -31 1 -66 0 -77 -1 -11 -1 -27 -1 -35 1 -8 1 -31 0 -50
0 -19 0 -39 -1 -45 0 -5 3 -20 6 -33 2 -12 1 -22 -3 -22 -4 0 -5 -20 -1 -45 4
-24 3 -50 -1 -57 -4 -7 -3 -18 2 -24 7 -8 6 -14 -1 -19 -6 -3 -8 -10 -6 -14 3
-4 5 -39 5 -77 1 -100 1 -104 2 -157 1 -27 -1 -50 -4 -53 -2 -3 -1 -21 3 -40
4 -18 4 -34 -1 -34 -4 0 -5 -10 0 -22 4 -13 5 -35 0 -50 -4 -16 -4 -28 1 -28
4 0 5 -15 1 -32 -3 -18 -5 -49 -3 -68 1 -19 4 -46 5 -60 1 -14 -1 -37 -4 -51
-4 -15 -3 -32 1 -40 5 -7 4 -21 -1 -30 -6 -12 -5 -20 1 -24 6 -4 7 -11 4 -17
-6 -10 -7 -80 -1 -153 1 -16 -1 -42 -4 -56 -4 -15 -3 -32 1 -40 5 -7 4 -21 -1
-30 -6 -12 -5 -20 1 -24 6 -4 7 -11 4 -17 -6 -10 -7 -80 -1 -153 1 -16 -1 -42
-4 -56 -4 -15 -3 -32 1 -40 5 -7 4 -21 -1 -30 -6 -12 -5 -20 1 -24 6 -4 7 -11
4 -17 -6 -10 -7 -80 -1 -153 1 -16 -1 -42 -4 -56 -4 -15 -3 -32 1 -40 5 -7 4
-21 -1 -30 -6 -12 -5 -20 1 -24 8 -5 8 -11 1 -19 -6 -7 -9 -15 -6 -17 2 -3 5
-38 6 -79 2 -87 23 -130 74 -154 30 -15 229 -16 2172 -14 2120 3 2138 3 2165
23 15 11 34 34 43 52 13 28 15 505 15 4505 0 4352 -1 4474 -19 4501 -10 16
-33 37 -50 48 -30 18 -84 19 -2169 19 -1583 -1 -2142 -4 -2157 -12z m1333
-4183 c89 -32 161 -98 206 -188 35 -70 38 -85 39 -160 2 -125 -6 -153 -66
-240 -78 -113 -197 -171 -331 -163 -41 3 -83 9 -93 14 -10 6 -21 10 -26 11
-13 1 -67 31 -89 49 -50 42 -98 98 -98 117 0 8 -4 15 -9 15 -13 0 -44 110 -46
165 -7 276 258 472 513 380z"/>
<path d="M2898 8614 c-3 -3 -407 -5 -897 -5 -692 1 -896 -2 -907 -12 -8 -6
-26 -23 -39 -37 l-25 -25 0 -4023 c0 -3575 2 -4028 15 -4056 19 -40 58 -62
114 -65 25 -1 48 -4 52 -7 4 -2 10 0 13 5 3 4 23 5 45 1 21 -4 46 -3 55 2 10
6 16 5 16 -2 0 -6 5 -8 11 -4 10 6 45 7 122 3 6 0 28 0 47 1 19 0 50 -1 68 -3
18 -2 35 0 38 4 2 4 17 4 32 0 15 -4 38 -5 52 -1 14 4 35 3 47 -1 12 -5 25 -4
28 1 3 5 18 5 33 1 15 -4 38 -5 52 -1 13 3 45 3 71 0 25 -3 57 -3 71 1 14 4
31 3 38 -1 7 -4 24 -4 39 0 14 4 35 4 46 0 11 -4 26 -3 33 2 8 7 12 7 12 -1 0
-8 6 -9 18 -3 9 5 28 6 42 2 14 -4 33 -3 43 2 11 6 17 5 17 -2 0 -6 5 -8 11
-4 6 4 34 6 63 5 28 -1 65 -1 81 0 17 0 37 1 45 0 66 -3 161 -2 168 2 4 3 14
2 21 -3 8 -4 25 -4 40 0 14 4 35 4 46 0 11 -4 26 -3 33 2 8 7 12 7 12 -1 0 -8
6 -9 18 -3 9 5 28 6 42 2 14 -4 33 -3 43 2 11 6 17 5 17 -2 0 -6 5 -8 12 -4 6
4 40 6 75 5 l63 -2 0 300 c0 280 -1 301 -17 302 -75 3 -263 0 -272 -5 -5 -4
-12 -3 -15 2 -5 9 -81 6 -98 -4 -6 -4 -9 -3 -5 2 6 10 -172 10 -198 1 -8 -4
-16 -3 -19 1 -5 9 -82 6 -98 -4 -6 -4 -9 -3 -5 2 6 10 -172 10 -198 1 -8 -4
-16 -3 -19 1 -5 9 -82 6 -98 -4 -6 -4 -9 -3 -5 2 3 5 -35 9 -89 9 -52 0 -94
-4 -94 -8 0 -5 -5 -5 -10 -2 -15 9 -104 10 -117 2 -7 -4 -14 -4 -17 1 -2 4
-23 7 -45 5 l-41 -2 0 3510 0 3509 730 0 730 0 0 301 0 300 -84 -2 c-46 -1
-88 1 -93 4 -6 4 -13 4 -15 1z"/>
</g>
</svg>
